. 
  
http://www.torrenting.com/        :     Greatest Movie Tracker on The Net!!!
 
http://www.Torrenting.com          :     Once & For all ;)


               www . Torrenting . Com 

(((((((((((((= Enjoy No RAR releases =))))))))))))))))))))


...................................NFO:....................................

.[img]http://img193.imageshack.us/img193/1600/swany.jpg[/img]

[color=blue][size=5][b]Black Swan 2010 BDRip XVID AC3 HQ Hive-CM8[/b][/size][/color]


[b]Thx Hive

CM8 Doing It Right The First Time :D

Why download a touched up rip of a rip BRrip
Get the real deal BDRip
Enjoy

Source Bluray

Video: 720x304 @bitrate 1700 2pass
Audio: DTS to AC3 5.1 @448
Sample: yes included
Subs: yes english in srt /subs

Encode:
cleaned from the video noise, which btw looked terrible, 
even if the producer wanted it that way, i dont![/b]
 
http://www.imdb.com/title/tt0947798/


General
Complete name                    : Black.Swan.2010.BDRip.XVID.AC3.HQ.Hive-CM8.avi
Format                           : AVI
Format/Info                      : Audio Video Interleave
File size                        : 1.63 GiB
Duration                         : 1h 48mn
Overall bit rate                 : 2 157 Kbps
Writing application              : Nandub v1.0rc2
Writing library                  : Nandub build 1853/release

Video
ID                               : 0
Format                           : MPEG-4 Visual
Format profile                   : Advanced Simple@L5
Format settings, BVOP            : Yes
Format settings, QPel            : Yes
Format settings, GMC             : No warppoints
Format settings, Matrix          : Default (H.263)
Muxing mode                      : Packed bitstream
Codec ID                         : XVID
Codec ID/Hint                    : XviD
Duration                         : 1h 48mn
Bit rate                         : 1 699 Kbps
Width                            : 720 pixels
Height                           : 304 pixels
Display aspect ratio             : 2.40:1
Frame rate                       : 23.976 fps
Color space                      : YUV
Chroma subsampling               : 4:2:0
Bit depth                        : 8 bits
Scan type                        : Progressive
Bits/(Pixel*Frame)               : 0.324
Stream size                      : 1.28 GiB (79%)
Writing library                  : XviD 1.2.1 (UTC 2008-12-04)

Audio
ID                               : 1
Format                           : AC-3
Format/Info                      : Audio Coding 3
Mode extension                   : CM (complete main)
Codec ID                         : 2000
Duration                         : 1h 48mn
Bit rate mode                    : Constant
Bit rate                         : 448 Kbps
Channel(s)                       : 6 channels
Channel positions                : Front: L C R, Side: L R, LFE
Sampling rate                    : 48.0 KHz
Bit depth                        : 16 bits
Stream size                      : 346 MiB (21%)
Alignment                        : Split accross interleaves
Interleave, duration             : 42 ms (1.00 video frame)
Interleave, preload duration     : 500 ms


Natalie Portman ... Nina Sayers / The Swan Queen
Mila Kunis ... Lily / The Black Swan
Vincent Cassel ... Thomas Leroy / The Gentleman
Barbara Hershey ... Erica Sayers / The Queen
Winona Ryder ... Beth Macintyre / The Dying Swan
Benjamin Millepied ... David / The Prince
Ksenia Solo ... Veronica / Little Swan
Kristina Anapau ... Galina / Little Swan
Janet Montgomery ... Madeline / Little Swan
Sebastian Stan ... Andrew / Suitor
Toby Hemingway ... Tom / Suitor  




Nina (Portman) is a ballerina in a New York City ballet company whose life, 
like all those in her profession, is completely consumed with dance. 
She lives with her obsessive former ballerina mother Erica (Hershey) who exerts 
a suffocating control over her. When artistic director Thomas Leroy (Cassel) 
decides to replace prima ballerina Beth MacIntyre (Ryder) for the opening 
production of their new season, Swan Lake, Nina is his first choice. But Nina has competition.  



[img]http://img716.imageshack.us/img716/4915/bblbblll.png[/img]
[img]http://img39.imageshack.us/img39/4097/bblblbblll.png[/img]
[img]http://img834.imageshack.us/img834/7076/bblblblbblll.png[/img]
[img]http://img96.imageshack.us/img96/2332/bblbll.png[/img]
[img]http://img190.imageshack.us/img190/7677/bbll.png[/img]
[img]http://img585.imageshack.us/img585/1892/24119933.png[/img]
[img]http://img834.imageshack.us/img834/585/bblblblblbblll.png[/img]





Greetz

iNK,LUSi,,MAGNET,CLASSiFiED,THC,LEGi0N,T0XiC,IMAGiNE,ViSiON,WBZ,FLAWL3SS,NOVA
Vik,Rapeseed,D2U,SAFC,goldadvance,MEMORY100,KaN1vE,Unevano,Pinnz,Wayne,Mr Hive
and all P2P groups 
Great Work Guys :D

CM8@hushmail.com